<svg width="24" height="24" viewBox="0 0 24 24" fill="none" xmlns="http://www.w3.org/2000/svg">
<g clip-path="url(#clip0_120_315)">
<path d="M12.1477 3.51676C12.1794 3.55192 12.3973 4.22692 12.6329 5.02145C12.8684 5.81247 13.118 6.61403 13.1848 6.79684C13.7684 8.36832 14.9919 9.73239 16.5247 10.5164C17.0204 10.7695 17.3614 10.8855 18.9786 11.3672C19.7731 11.6027 20.4481 11.8207 20.4798 11.8523C20.5747 11.9332 20.5606 12.0879 20.4516 12.1722C20.3989 12.2144 20.3426 12.2461 20.3215 12.2461C20.202 12.2461 17.2665 13.1601 16.929 13.3007C15.2626 14.0074 13.895 15.4101 13.22 17.1152C13.1497 17.2875 12.893 18.1031 12.6505 18.9257C12.4044 19.7484 12.1794 20.448 12.1477 20.4797C12.0422 20.5992 11.8243 20.5394 11.7751 20.3742C11.7645 20.3425 11.5747 19.6957 11.3497 18.9433C11.1282 18.1875 10.8962 17.4386 10.8329 17.2734C10.2247 15.6175 9.00827 14.2605 7.41217 13.466C6.83561 13.1812 6.70201 13.1355 3.8192 12.2847C3.67858 12.2425 3.54147 12.1828 3.50983 12.1547C3.43951 12.0808 3.44303 11.9191 3.51686 11.8488C3.55201 11.8207 4.24811 11.5957 5.06022 11.3531C6.71959 10.8574 6.86373 10.8082 7.41217 10.541C8.84655 9.84489 10.0735 8.55114 10.7028 7.06403C10.8012 6.82497 11.0755 5.98825 11.3356 5.11286C11.5852 4.27262 11.8172 3.55543 11.8489 3.52028C11.9227 3.43942 12.0774 3.43942 12.1477 3.51676Z" fill="#0D0D0D"/>
</g>
<defs>
<clipPath id="clip0_120_315">
<rect width="18" height="18" fill="white" transform="matrix(-1 0 0 1 21 3)"/>
</clipPath>
</defs>
</svg>
