<svg width="98" height="24" viewBox="0 0 98 24" fill="none" xmlns="http://www.w3.org/2000/svg">
<path fill-rule="evenodd" clip-rule="evenodd" d="M27 5C34.5425 5 38.3141 4.99987 40.6572 5.81997C43.0004 6.64007 43 7.96014 43 10.6V13.4C43 16.0399 43.0004 17.3599 40.6572 18.18C38.3141 19.0001 34.5425 19 27 19H19C11.4575 19 7.68592 19.0001 5.34277 18.18C2.99963 17.3599 3 16.0399 3 13.4V10.6C3 7.96014 2.99963 6.64007 5.34277 5.81997C7.68592 4.99987 11.4575 5 19 5H27ZM23 9.9C19.6863 9.9 17 10.8402 17 12C17 13.1598 19.6863 14.1 23 14.1C26.3137 14.1 29 13.1598 29 12C29 10.8402 26.3137 9.9 23 9.9Z" fill="white"/>
<path d="M50 17.04V8.85C50 8.50467 50.084 8.18733 50.252 7.898C50.42 7.60867 50.6487 7.38 50.938 7.212C51.2273 7.044 51.5447 6.96 51.89 6.96H58.19C58.5353 6.96 58.848 7.044 59.128 7.212C59.4173 7.38 59.646 7.60867 59.814 7.898C59.9913 8.18733 60.08 8.50467 60.08 8.85V17.04H58.386V13.582H51.68V17.04H50ZM51.68 11.902H58.386V8.906C58.386 8.83133 58.358 8.77067 58.302 8.724C58.2553 8.67733 58.1993 8.654 58.134 8.654H51.932C51.8667 8.654 51.806 8.67733 51.75 8.724C51.7033 8.77067 51.68 8.83133 51.68 8.906V11.902Z" fill="white"/>
<path d="M62.9491 17.04C62.6038 17.04 62.2865 16.956 61.9971 16.788C61.7171 16.6107 61.4931 16.382 61.3251 16.102C61.1571 15.822 61.0731 15.5093 61.0731 15.164V8.92H62.7391V15.108C62.7391 15.1827 62.7625 15.248 62.8091 15.304C62.8651 15.3507 62.9305 15.374 63.0051 15.374H67.3871C67.4618 15.374 67.5225 15.3507 67.5691 15.304C67.6251 15.248 67.6531 15.1827 67.6531 15.108V8.92H69.3191V15.164C69.3191 15.5093 69.2351 15.822 69.0671 16.102C68.8991 16.382 68.6751 16.6107 68.3951 16.788C68.1151 16.956 67.7978 17.04 67.4431 17.04H62.9491Z" fill="white"/>
<path d="M70.2335 17.04V10.796C70.2335 10.4507 70.3175 10.138 70.4855 9.858C70.6628 9.578 70.8915 9.354 71.1715 9.186C71.4608 9.00867 71.7735 8.92 72.1095 8.92H76.6315V10.586H72.1655C72.0908 10.586 72.0255 10.614 71.9695 10.67C71.9228 10.7167 71.8995 10.7773 71.8995 10.852V17.04H70.2335Z" fill="white"/>
<path d="M78.8636 17.04C78.5183 17.04 78.2056 16.956 77.9256 16.788C77.6456 16.6107 77.417 16.382 77.2396 16.102C77.0716 15.822 76.9876 15.5093 76.9876 15.164V10.796C76.9876 10.4507 77.0716 10.138 77.2396 9.858C77.417 9.578 77.6456 9.354 77.9256 9.186C78.2056 9.00867 78.5183 8.92 78.8636 8.92H83.3576C83.7123 8.92 84.0296 9.00867 84.3096 9.186C84.5896 9.354 84.8136 9.578 84.9816 9.858C85.1496 10.138 85.2336 10.4507 85.2336 10.796V13.82H78.6536V15.108C78.6536 15.1827 78.677 15.248 78.7236 15.304C78.7796 15.3507 78.845 15.374 78.9196 15.374H85.2336V17.04H78.8636ZM78.6536 12.294H83.5676V10.852C83.5676 10.7773 83.5396 10.7167 83.4836 10.67C83.437 10.614 83.3763 10.586 83.3016 10.586H78.9196C78.845 10.586 78.7796 10.614 78.7236 10.67C78.677 10.7167 78.6536 10.7773 78.6536 10.852V12.294Z" fill="white"/>
<path d="M86.163 17.04V8.92H92.547C92.883 8.92 93.191 9.00867 93.471 9.186C93.7603 9.354 93.989 9.578 94.157 9.858C94.325 10.138 94.409 10.4507 94.409 10.796V17.04H92.743V10.852C92.743 10.7773 92.715 10.7167 92.659 10.67C92.6123 10.614 92.5563 10.586 92.491 10.586H88.095C88.0296 10.586 87.969 10.614 87.913 10.67C87.857 10.7167 87.829 10.7773 87.829 10.852V17.04H86.163Z" fill="white"/>
</svg>
