<svg width="219" height="75" viewBox="0 0 219 75" fill="none" xmlns="http://www.w3.org/2000/svg">
<path d="M54.1391 35.5078C52.0557 35.5078 50.2523 35.1758 48.7289 34.5117C47.2055 33.8346 46.0076 32.8971 45.1352 31.6992C44.2758 30.4883 43.7875 29.0885 43.6703 27.5H47.3031C47.4073 28.5938 47.7784 29.4987 48.4164 30.2148C49.0674 30.931 49.8943 31.4648 50.8969 31.8164C51.8995 32.168 52.9802 32.3438 54.1391 32.3438C55.4802 32.3438 56.6846 32.1224 57.7523 31.6797C58.8331 31.237 59.6859 30.6185 60.3109 29.8242C60.9359 29.0299 61.2484 28.099 61.2484 27.0312C61.2484 26.0677 60.975 25.2865 60.4281 24.6875C59.8812 24.0885 59.1651 23.6003 58.2797 23.2227C57.4073 22.8451 56.4568 22.513 55.4281 22.2266L51.8734 21.2109C49.5948 20.5599 47.7914 19.6289 46.4633 18.418C45.1482 17.194 44.4906 15.599 44.4906 13.6328C44.4906 12.0052 44.9268 10.5859 45.7992 9.375C46.6846 8.15104 47.876 7.20052 49.3734 6.52344C50.8839 5.84635 52.5635 5.50781 54.4125 5.50781C56.2875 5.50781 57.9542 5.84635 59.4125 6.52344C60.8708 7.1875 62.0297 8.09896 62.8891 9.25781C63.7484 10.4036 64.2042 11.7057 64.2562 13.1641H60.8187C60.6495 11.7318 59.9594 10.6185 58.7484 9.82422C57.5505 9.02995 56.0661 8.63281 54.2953 8.63281C53.0193 8.63281 51.8995 8.84115 50.9359 9.25781C49.9724 9.67448 49.2237 10.2474 48.6898 10.9766C48.156 11.7057 47.8891 12.5391 47.8891 13.4766C47.8891 14.5052 48.2081 15.3385 48.8461 15.9766C49.4841 16.6016 50.2393 17.0898 51.1117 17.4414C51.9971 17.793 52.7979 18.0729 53.5141 18.2812L56.4437 19.1016C57.199 19.3099 58.0388 19.5898 58.9633 19.9414C59.9008 20.293 60.7992 20.7682 61.6586 21.3672C62.531 21.9661 63.2471 22.7344 63.807 23.6719C64.3669 24.5964 64.6469 25.7422 64.6469 27.1094C64.6469 28.6719 64.2367 30.0911 63.4164 31.3672C62.5961 32.6302 61.4047 33.6393 59.8422 34.3945C58.2797 35.1367 56.3786 35.5078 54.1391 35.5078ZM67.3234 35V13.1641H70.6437V35H67.3234ZM69.0031 9.53125C68.3521 9.53125 67.7922 9.3099 67.3234 8.86719C66.8547 8.42448 66.6203 7.89062 66.6203 7.26562C66.6203 6.64062 66.8547 6.10677 67.3234 5.66406C67.7922 5.22135 68.3521 5 69.0031 5C69.6542 5 70.2141 5.22135 70.6828 5.66406C71.1516 6.10677 71.3859 6.64062 71.3859 7.26562C71.3859 7.89062 71.1516 8.42448 70.6828 8.86719C70.2141 9.3099 69.6542 9.53125 69.0031 9.53125ZM83.5937 13.1641V16.0156H72.3047V13.1641H83.5937ZM75.5859 7.96875H78.9062V28.75C78.9062 29.8828 79.1406 30.7161 79.6094 31.25C80.0781 31.7708 80.8203 32.0312 81.8359 32.0312C82.0573 32.0312 82.2852 32.0182 82.5195 31.9922C82.7669 31.9661 83.0339 31.9271 83.3203 31.875L84.0234 34.8828C83.7109 35 83.3268 35.0911 82.8711 35.1562C82.4284 35.2344 81.9792 35.2734 81.5234 35.2734C79.7656 35.2734 78.3333 34.7526 77.2266 33.7109C76.1328 32.6693 75.5859 31.3151 75.5859 29.6484V7.96875ZM94.9422 35.4688C92.8458 35.4688 91.0294 35 89.493 34.0625C87.9695 33.125 86.7977 31.8164 85.9773 30.1367C85.157 28.444 84.7469 26.4844 84.7469 24.2578C84.7469 22.0182 85.1505 20.0456 85.9578 18.3398C86.7651 16.6341 87.8979 15.2995 89.3562 14.3359C90.8276 13.3724 92.5464 12.8906 94.5125 12.8906C95.6453 12.8906 96.7716 13.0794 97.8914 13.457C99.0112 13.8346 100.027 14.4466 100.938 15.293C101.863 16.1393 102.598 17.2591 103.145 18.6523C103.692 20.0456 103.966 21.7578 103.966 23.7891V25.2344H87.1297V22.3438H102.149L100.606 23.4375C100.606 21.9792 100.378 20.6836 99.9227 19.5508C99.4669 18.418 98.7833 17.526 97.8719 16.875C96.9734 16.224 95.8536 15.8984 94.5125 15.8984C93.1714 15.8984 92.019 16.2305 91.0555 16.8945C90.1049 17.5456 89.3758 18.3984 88.868 19.4531C88.3602 20.5078 88.1062 21.6406 88.1062 22.8516V24.7656C88.1062 26.4193 88.3927 27.819 88.9656 28.9648C89.5385 30.1107 90.3393 30.9831 91.368 31.582C92.3966 32.168 93.588 32.4609 94.9422 32.4609C95.8146 32.4609 96.6089 32.3372 97.325 32.0898C98.0411 31.8294 98.6596 31.4453 99.1805 30.9375C99.7013 30.4167 100.098 29.7786 100.372 29.0234L103.614 29.9609C103.276 31.0547 102.703 32.0182 101.895 32.8516C101.101 33.6719 100.111 34.3164 98.9266 34.7852C97.7417 35.2409 96.4135 35.4688 94.9422 35.4688ZM106.759 35V5.89844H116.955C118.973 5.89844 120.64 6.25 121.955 6.95312C123.27 7.64323 124.246 8.57422 124.884 9.74609C125.535 10.918 125.861 12.2135 125.861 13.6328C125.861 14.8828 125.64 15.918 125.197 16.7383C124.754 17.5456 124.175 18.1901 123.459 18.6719C122.742 19.1406 121.968 19.4922 121.134 19.7266V20C122.033 20.0521 122.931 20.3646 123.83 20.9375C124.728 21.5104 125.477 22.3242 126.076 23.3789C126.688 24.4336 126.994 25.7292 126.994 27.2656C126.994 28.724 126.662 30.0391 125.998 31.2109C125.334 32.3698 124.285 33.2943 122.853 33.9844C121.434 34.6615 119.572 35 117.267 35H106.759ZM110.275 31.875H117.267C119.572 31.875 121.206 31.4258 122.17 30.5273C123.146 29.6289 123.634 28.5417 123.634 27.2656C123.634 26.276 123.38 25.3646 122.873 24.5312C122.378 23.6979 121.668 23.0273 120.744 22.5195C119.819 22.0117 118.726 21.7578 117.462 21.7578H110.275V31.875ZM110.275 18.7109H116.837C117.892 18.7109 118.849 18.5026 119.709 18.0859C120.568 17.6562 121.245 17.0638 121.74 16.3086C122.248 15.5404 122.502 14.6484 122.502 13.6328C122.502 12.3568 122.059 11.2695 121.173 10.3711C120.288 9.47266 118.882 9.02344 116.955 9.02344H110.275V18.7109ZM143.42 26.0938V13.1641H146.741V35H143.42V31.2891H143.186C142.665 32.3958 141.864 33.3398 140.784 34.1211C139.716 34.9023 138.355 35.2865 136.702 35.2734C135.334 35.2734 134.123 34.9805 133.069 34.3945C132.014 33.7956 131.181 32.8841 130.569 31.6602C129.97 30.4362 129.67 28.8932 129.67 27.0312V13.1641H132.991V26.8359C132.991 28.4115 133.44 29.6745 134.338 30.625C135.25 31.5755 136.402 32.0443 137.795 32.0312C138.629 32.0312 139.475 31.8229 140.334 31.4062C141.207 30.9766 141.936 30.3255 142.522 29.4531C143.121 28.5677 143.42 27.4479 143.42 26.0938ZM153.558 21.875V35H150.237V13.1641H153.441V16.6016H153.753C154.261 15.4818 155.036 14.5833 156.077 13.9062C157.119 13.2292 158.467 12.8906 160.12 12.8906C161.592 12.8906 162.881 13.1901 163.987 13.7891C165.094 14.388 165.954 15.2995 166.566 16.5234C167.191 17.7344 167.503 19.2708 167.503 21.1328V35H164.183V21.3672C164.183 19.6615 163.734 18.3268 162.835 17.3633C161.937 16.3867 160.713 15.8984 159.163 15.8984C158.096 15.8984 157.139 16.1328 156.292 16.6016C155.446 17.0703 154.775 17.7474 154.28 18.6328C153.799 19.5182 153.558 20.599 153.558 21.875ZM179.203 35.4688C177.38 35.4688 175.772 35.0065 174.379 34.082C172.986 33.1576 171.898 31.849 171.117 30.1562C170.336 28.4505 169.945 26.4453 169.945 24.1406C169.945 21.849 170.336 19.8633 171.117 18.1836C171.911 16.4909 173.005 15.1888 174.398 14.2773C175.792 13.3529 177.406 12.8906 179.242 12.8906C180.674 12.8906 181.801 13.125 182.621 13.5938C183.454 14.0625 184.092 14.5964 184.535 15.1953C184.978 15.7812 185.323 16.263 185.57 16.6406H185.844V5.89844H189.164V35H185.961V31.6406H185.57C185.323 32.0312 184.971 32.5326 184.516 33.1445C184.06 33.7435 183.409 34.2839 182.562 34.7656C181.729 35.2344 180.609 35.4688 179.203 35.4688ZM179.633 32.4609C180.987 32.4609 182.126 32.1094 183.051 31.4062C183.975 30.6901 184.678 29.707 185.16 28.457C185.642 27.194 185.883 25.7422 185.883 24.1016C185.883 22.4609 185.648 21.0286 185.18 19.8047C184.711 18.5677 184.008 17.6107 183.07 16.9336C182.146 16.2435 181 15.8984 179.633 15.8984C178.227 15.8984 177.055 16.263 176.117 16.9922C175.18 17.7214 174.477 18.7044 174.008 19.9414C173.539 21.1784 173.305 22.5651 173.305 24.1016C173.305 25.651 173.539 27.0573 174.008 28.3203C174.49 29.5833 175.199 30.5924 176.137 31.3477C177.074 32.0898 178.24 32.4609 179.633 32.4609ZM195.981 5.89844V35H192.661V5.89844H195.981ZM208.619 35.4688C206.522 35.4688 204.706 35 203.17 34.0625C201.646 33.125 200.474 31.8164 199.654 30.1367C198.834 28.444 198.423 26.4844 198.423 24.2578C198.423 22.0182 198.827 20.0456 199.634 18.3398C200.442 16.6341 201.574 15.2995 203.033 14.3359C204.504 13.3724 206.223 12.8906 208.189 12.8906C209.322 12.8906 210.448 13.0794 211.568 13.457C212.688 13.8346 213.703 14.4466 214.615 15.293C215.539 16.1393 216.275 17.2591 216.822 18.6523C217.369 20.0456 217.642 21.7578 217.642 23.7891V25.2344H200.806V22.3438H215.826L214.283 23.4375C214.283 21.9792 214.055 20.6836 213.599 19.5508C213.143 18.418 212.46 17.526 211.548 16.875C210.65 16.224 209.53 15.8984 208.189 15.8984C206.848 15.8984 205.696 16.2305 204.732 16.8945C203.782 17.5456 203.052 18.3984 202.545 19.4531C202.037 20.5078 201.783 21.6406 201.783 22.8516V24.7656C201.783 26.4193 202.069 27.819 202.642 28.9648C203.215 30.1107 204.016 30.9831 205.045 31.582C206.073 32.168 207.265 32.4609 208.619 32.4609C209.491 32.4609 210.285 32.3372 211.002 32.0898C211.718 31.8294 212.336 31.4453 212.857 30.9375C213.378 30.4167 213.775 29.7786 214.048 29.0234L217.291 29.9609C216.952 31.0547 216.379 32.0182 215.572 32.8516C214.778 33.6719 213.788 34.3164 212.603 34.7852C211.418 35.2409 210.09 35.4688 208.619 35.4688Z" fill="#D2D2D2"/>
<path d="M23.5431 46.24L24.2031 47.76L13.8231 64.94C13.5831 65.2867 13.3898 65.5933 13.2431 65.86C13.1098 66.1133 12.9898 66.42 12.8831 66.78L12.5431 67.98C12.4231 68.3 12.2498 68.5533 12.0231 68.74C11.7965 68.9133 11.4698 69 11.0431 69H8.76313C8.34979 69 8.05646 68.9067 7.88313 68.72C7.70979 68.52 7.68979 68.2333 7.82313 67.86L8.22313 66.44C8.31646 66.1733 8.37646 65.9133 8.40313 65.66C8.42979 65.4067 8.44313 65.12 8.44313 64.8C8.45646 64.4133 8.46313 63.76 8.46313 62.84C8.46313 61.9067 8.46313 60.8067 8.46313 59.54C8.47646 58.26 8.47646 56.9 8.46313 55.46C8.46313 54.02 8.45646 52.5933 8.44313 51.18C8.44313 49.7533 8.43646 48.4267 8.42313 47.2C8.42313 45.9733 8.41646 44.9467 8.40313 44.12C8.38979 43.68 8.32313 43.34 8.20313 43.1C8.09646 42.8467 7.86979 42.68 7.52313 42.6L6.82313 42.38C6.54313 42.3133 6.33646 42.22 6.20313 42.1C6.06979 41.98 6.00313 41.8333 6.00313 41.66C6.00313 41.4467 6.08313 41.2867 6.24313 41.18C6.41646 41.06 6.65646 41 6.96313 41H15.2231C15.5431 41 15.7631 41.0533 15.8831 41.16C16.0031 41.2667 16.0631 41.42 16.0631 41.62C16.0631 41.7933 15.9898 41.9467 15.8431 42.08C15.7098 42.2133 15.5031 42.3133 15.2231 42.38L13.8631 42.66C13.4365 42.74 13.1298 42.9133 12.9431 43.18C12.7565 43.4467 12.6498 43.8533 12.6231 44.4C12.6231 45 12.6165 45.7933 12.6031 46.78C12.5898 47.7533 12.5765 48.86 12.5631 50.1C12.5631 51.3267 12.5565 52.6267 12.5431 54C12.5431 55.36 12.5365 56.7333 12.5231 58.12C12.5231 59.5067 12.5165 60.8467 12.5031 62.14C12.5031 63.42 12.5031 64.5867 12.5031 65.64L11.3831 65.86L23.5431 46.24ZM35.5831 41.7C35.5831 41.4867 35.6698 41.32 35.8431 41.2C36.0165 41.0667 36.2565 41 36.5631 41H43.4231C43.7431 41 43.9631 41.0533 44.0831 41.16C44.2031 41.2667 44.2631 41.4133 44.2631 41.6C44.2631 41.92 43.9631 42.1867 43.3631 42.4L42.7631 42.62C42.4298 42.74 42.0898 42.9533 41.7431 43.26C41.4098 43.5667 41.0698 43.9533 40.7231 44.42C40.3765 44.8733 40.0231 45.4067 39.6631 46.02L28.6431 65C28.4831 65.2533 28.3365 65.5133 28.2031 65.78C28.0831 66.0467 27.9698 66.3733 27.8631 66.76L27.5231 67.94C27.4298 68.3 27.2698 68.5667 27.0431 68.74C26.8165 68.9133 26.5365 69 26.2031 69H23.6831C23.3498 69 23.0965 68.8867 22.9231 68.66C22.7631 68.42 22.7498 68.1133 22.8831 67.74L23.2631 66.46C23.3565 66.1933 23.4165 65.9333 23.4431 65.68C23.4831 65.4267 23.4965 65.1667 23.4831 64.9C23.4831 64.42 23.4698 63.6733 23.4431 62.66C23.4298 61.6333 23.4098 60.4467 23.3831 59.1C23.3565 57.74 23.3231 56.3267 23.2831 54.86C23.2431 53.38 23.2031 51.9467 23.1631 50.56C23.1365 49.1733 23.1031 47.92 23.0631 46.8C23.0231 45.68 22.9765 44.8133 22.9231 44.2C22.8831 43.6933 22.7965 43.3133 22.6631 43.06C22.5431 42.8067 22.3165 42.64 21.9831 42.56L21.1631 42.34C20.9898 42.2733 20.8498 42.1867 20.7431 42.08C20.6365 41.9733 20.5831 41.8467 20.5831 41.7C20.5831 41.4733 20.6698 41.3 20.8431 41.18C21.0165 41.06 21.2631 41 21.5831 41H29.5031C29.7698 41 29.9698 41.0533 30.1031 41.16C30.2498 41.2533 30.3231 41.4067 30.3231 41.62C30.3231 41.8067 30.2498 41.96 30.1031 42.08C29.9565 42.2 29.7698 42.3 29.5431 42.38L28.1031 42.68C27.6498 42.7867 27.3431 42.98 27.1831 43.26C27.0231 43.54 26.9498 43.9933 26.9631 44.62C26.9765 45.1133 26.9898 45.88 27.0031 46.92C27.0298 47.9467 27.0565 49.14 27.0831 50.5C27.1231 51.86 27.1565 53.2867 27.1831 54.78C27.2231 56.26 27.2565 57.7067 27.2831 59.12C27.3231 60.5333 27.3565 61.8067 27.3831 62.94C27.4231 64.0733 27.4565 64.96 27.4831 65.6L26.3831 65.72L38.0431 45.72C38.4698 44.9867 38.6298 44.34 38.5231 43.78C38.4165 43.2067 38.0231 42.8133 37.3431 42.6L36.2231 42.32C35.7965 42.1867 35.5831 41.98 35.5831 41.7ZM57.1125 40.5C58.8458 40.54 60.3792 40.9333 61.7125 41.68C63.0592 42.4267 64.1525 43.4667 64.9925 44.8C65.8325 46.12 66.3592 47.68 66.5725 49.48C66.7992 51.2667 66.6525 53.24 66.1325 55.4C65.5858 57.7067 64.7525 59.7467 63.6325 61.52C62.5125 63.2933 61.1925 64.7867 59.6725 66C58.1525 67.2 56.4925 68.1 54.6925 68.7C52.9058 69.2867 51.0458 69.5533 49.1125 69.5C47.3525 69.4467 45.7992 69.0467 44.4525 68.3C43.1058 67.54 42.0192 66.4867 41.1925 65.14C40.3792 63.78 39.8858 62.1667 39.7125 60.3C39.5525 58.42 39.7858 56.3333 40.4125 54.04C40.9592 52.04 41.7725 50.2067 42.8525 48.54C43.9458 46.86 45.2392 45.4133 46.7325 44.2C48.2258 42.9733 49.8525 42.04 51.6125 41.4C53.3858 40.7467 55.2192 40.4467 57.1125 40.5ZM49.6925 68.12C50.7858 68.16 51.8858 67.96 52.9925 67.52C54.0992 67.0667 55.1658 66.3333 56.1925 65.32C57.2192 64.2933 58.1658 62.9533 59.0325 61.3C59.8992 59.6333 60.6458 57.6067 61.2725 55.22C61.6058 53.98 61.8458 52.8467 61.9925 51.82C62.1392 50.7933 62.2058 49.86 62.1925 49.02C62.1792 47.4867 61.9258 46.2 61.4325 45.16C60.9392 44.12 60.2792 43.3267 59.4525 42.78C58.6258 42.22 57.6992 41.92 56.6725 41.88C55.5392 41.8133 54.3992 42.0333 53.2525 42.54C52.1192 43.0467 51.0392 43.8267 50.0125 44.88C48.9992 45.92 48.0792 47.2267 47.2525 48.8C46.4258 50.3733 45.7592 52.2 45.2525 54.28C44.9058 55.6533 44.6525 56.8933 44.4925 58C44.3325 59.0933 44.2525 60.0733 44.2525 60.94C44.2258 63.3133 44.7125 65.0867 45.7125 66.26C46.7258 67.4333 48.0525 68.0533 49.6925 68.12ZM84.7978 46.24L85.4578 47.76L75.0778 64.94C74.8378 65.2867 74.6445 65.5933 74.4978 65.86C74.3645 66.1133 74.2445 66.42 74.1378 66.78L73.7978 67.98C73.6778 68.3 73.5045 68.5533 73.2778 68.74C73.0511 68.9133 72.7245 69 72.2978 69H70.0178C69.6045 69 69.3111 68.9067 69.1378 68.72C68.9645 68.52 68.9445 68.2333 69.0778 67.86L69.4778 66.44C69.5711 66.1733 69.6311 65.9133 69.6578 65.66C69.6845 65.4067 69.6978 65.12 69.6978 64.8C69.7111 64.4133 69.7178 63.76 69.7178 62.84C69.7178 61.9067 69.7178 60.8067 69.7178 59.54C69.7311 58.26 69.7311 56.9 69.7178 55.46C69.7178 54.02 69.7111 52.5933 69.6978 51.18C69.6978 49.7533 69.6911 48.4267 69.6778 47.2C69.6778 45.9733 69.6711 44.9467 69.6578 44.12C69.6445 43.68 69.5778 43.34 69.4578 43.1C69.3511 42.8467 69.1245 42.68 68.7778 42.6L68.0778 42.38C67.7978 42.3133 67.5911 42.22 67.4578 42.1C67.3245 41.98 67.2578 41.8333 67.2578 41.66C67.2578 41.4467 67.3378 41.2867 67.4978 41.18C67.6711 41.06 67.9111 41 68.2178 41H76.4778C76.7978 41 77.0178 41.0533 77.1378 41.16C77.2578 41.2667 77.3178 41.42 77.3178 41.62C77.3178 41.7933 77.2445 41.9467 77.0978 42.08C76.9645 42.2133 76.7578 42.3133 76.4778 42.38L75.1178 42.66C74.6911 42.74 74.3845 42.9133 74.1978 43.18C74.0111 43.4467 73.9045 43.8533 73.8778 44.4C73.8778 45 73.8711 45.7933 73.8578 46.78C73.8445 47.7533 73.8311 48.86 73.8178 50.1C73.8178 51.3267 73.8111 52.6267 73.7978 54C73.7978 55.36 73.7911 56.7333 73.7778 58.12C73.7778 59.5067 73.7711 60.8467 73.7578 62.14C73.7578 63.42 73.7578 64.5867 73.7578 65.64L72.6378 65.86L84.7978 46.24ZM96.8378 41.7C96.8378 41.4867 96.9245 41.32 97.0978 41.2C97.2711 41.0667 97.5112 41 97.8178 41H104.678C104.998 41 105.218 41.0533 105.338 41.16C105.458 41.2667 105.518 41.4133 105.518 41.6C105.518 41.92 105.218 42.1867 104.618 42.4L104.018 42.62C103.684 42.74 103.344 42.9533 102.998 43.26C102.664 43.5667 102.324 43.9533 101.978 44.42C101.631 44.8733 101.278 45.4067 100.918 46.02L89.8978 65C89.7378 65.2533 89.5911 65.5133 89.4578 65.78C89.3378 66.0467 89.2245 66.3733 89.1178 66.76L88.7778 67.94C88.6845 68.3 88.5245 68.5667 88.2978 68.74C88.0711 68.9133 87.7911 69 87.4578 69H84.9378C84.6045 69 84.3511 68.8867 84.1778 68.66C84.0178 68.42 84.0045 68.1133 84.1378 67.74L84.5178 66.46C84.6111 66.1933 84.6711 65.9333 84.6978 65.68C84.7378 65.4267 84.7511 65.1667 84.7378 64.9C84.7378 64.42 84.7245 63.6733 84.6978 62.66C84.6845 61.6333 84.6645 60.4467 84.6378 59.1C84.6111 57.74 84.5778 56.3267 84.5378 54.86C84.4978 53.38 84.4578 51.9467 84.4178 50.56C84.3911 49.1733 84.3578 47.92 84.3178 46.8C84.2778 45.68 84.2311 44.8133 84.1778 44.2C84.1378 43.6933 84.0511 43.3133 83.9178 43.06C83.7978 42.8067 83.5711 42.64 83.2378 42.56L82.4178 42.34C82.2445 42.2733 82.1045 42.1867 81.9978 42.08C81.8911 41.9733 81.8378 41.8467 81.8378 41.7C81.8378 41.4733 81.9245 41.3 82.0978 41.18C82.2711 41.06 82.5178 41 82.8378 41H90.7578C91.0245 41 91.2245 41.0533 91.3578 41.16C91.5045 41.2533 91.5778 41.4067 91.5778 41.62C91.5778 41.8067 91.5045 41.96 91.3578 42.08C91.2111 42.2 91.0245 42.3 90.7978 42.38L89.3578 42.68C88.9045 42.7867 88.5978 42.98 88.4378 43.26C88.2778 43.54 88.2045 43.9933 88.2178 44.62C88.2311 45.1133 88.2445 45.88 88.2578 46.92C88.2845 47.9467 88.3111 49.14 88.3378 50.5C88.3778 51.86 88.4111 53.2867 88.4378 54.78C88.4778 56.26 88.5111 57.7067 88.5378 59.12C88.5778 60.5333 88.6111 61.8067 88.6378 62.94C88.6778 64.0733 88.7111 64.96 88.7378 65.6L87.6378 65.72L99.2978 45.72C99.7245 44.9867 99.8845 44.34 99.7778 43.78C99.6711 43.2067 99.2778 42.8133 98.5978 42.6L97.4778 42.32C97.0511 42.1867 96.8378 41.98 96.8378 41.7Z" fill="url(#paint0_linear_55_763)"/>
<defs>
<linearGradient id="paint0_linear_55_763" x1="1" y1="55" x2="99" y2="55" gradientUnits="userSpaceOnUse">
<stop stop-color="#B0F745"/>
<stop offset="1" stop-color="#A366FA"/>
</linearGradient>
</defs>
</svg>
