<svg width="65" height="30" viewBox="0 0 65 30" fill="none" xmlns="http://www.w3.org/2000/svg">
<path d="M9.19381 30C7.91468 30 6.71548 29.6211 5.59623 28.8633C4.47699 28.0785 3.49098 27.0095 2.63822 25.6563C1.81211 24.3031 1.15922 22.7199 0.679543 20.9066C0.226514 19.0663 0 17.0907 0 14.9797C0 12.8687 0.226514 10.9066 0.679543 9.09337C1.15922 7.28011 1.81211 5.69689 2.63822 4.34371C3.49098 2.96346 4.47699 1.89445 5.59623 1.13667C6.71548 0.37889 7.91468 0 9.19381 0C10.473 0 11.6588 0.37889 12.7514 1.13667C13.8707 1.89445 14.8567 2.96346 15.7094 4.34371C16.5622 5.69689 17.2151 7.28011 17.6681 9.09337C18.1478 10.9066 20.8736 12.8687 20.8736 14.9797C20.8736 17.0907 18.1478 19.0663 17.6681 20.9066C17.2151 22.7199 16.5622 24.3031 15.7094 25.6563C14.8567 27.0095 13.8707 28.0785 12.7514 28.8633C11.6588 29.6211 10.473 30 9.19381 30ZM9.19381 28.9039C11.0859 28.9039 12.5649 27.7537 13.6308 25.4533C14.6968 23.1529 15.2298 19.6617 15.2298 14.9797C15.2298 10.2977 14.6968 6.82003 13.6308 4.54668C12.5649 2.24628 11.0859 1.09608 9.19381 1.09608C7.3284 1.09608 5.8494 2.24628 4.7568 4.54668C3.69085 6.82003 3.15788 10.2977 3.15788 14.9797C3.15788 19.6617 3.69085 23.1529 4.7568 25.4533C5.8494 27.7537 7.3284 28.9039 9.19381 28.9039Z" fill="#A3111E"/>
<path d="M21.6904 29.6346C21.2906 29.6346 21.0908 29.4858 21.0908 29.1881C21.0908 28.8904 21.264 28.728 21.6104 28.7009L23.4092 28.4168C23.9422 28.3356 24.302 28.2003 24.4885 28.0108C24.675 27.7943 24.7683 27.4019 24.7683 26.8336V17.253C24.7683 16.6576 24.6351 16.0758 24.3686 15.5074L18.4925 3.00406C18.306 2.54398 18.0928 2.19215 17.853 1.94858C17.6131 1.70501 17.2667 1.52909 16.8137 1.42084L16.4539 1.33965C16.0808 1.25846 15.8943 1.08254 15.8943 0.811907C15.8943 0.541271 16.0941 0.405954 16.4939 0.405954H23.3293C23.7024 0.405954 23.8889 0.554803 23.8889 0.852502C23.8889 1.1502 23.6624 1.31258 23.2094 1.33965L22.4499 1.42084C21.9968 1.4479 21.6771 1.59675 21.4905 1.86739C21.304 2.13802 21.3439 2.55751 21.6104 3.12584L26.5271 13.7618C26.6337 13.9513 26.767 14.046 26.9269 14.046C27.0867 14.046 27.22 13.9513 27.3266 13.7618L32.0434 3.97835C32.3898 3.27469 32.4698 2.70636 32.2833 2.27334C32.1234 1.81326 31.737 1.54262 31.124 1.46143L30.2446 1.33965C29.7916 1.25846 29.5651 1.09607 29.5651 0.852502C29.5651 0.554803 29.7516 0.405954 30.1247 0.405954H35.8009C36.2006 0.405954 36.4005 0.541271 36.4005 0.811907C36.4005 1.08254 36.2139 1.25846 35.8409 1.33965L35.4411 1.42084C35.068 1.50203 34.7349 1.73207 34.4418 2.11096C34.1753 2.48985 33.8156 3.12584 33.3625 4.01894L28.126 14.6955C27.9395 15.0744 27.8063 15.4398 27.7263 15.7916C27.6464 16.1164 27.6064 16.4953 27.6064 16.9283V26.8336C27.6064 27.4019 27.6997 27.7943 27.8862 28.0108C28.0994 28.2003 28.4592 28.3356 28.9655 28.4168L30.7643 28.7009C31.1107 28.728 31.2839 28.8904 31.2839 29.1881C31.2839 29.4858 31.0841 29.6346 30.6843 29.6346H21.6904Z" fill="#A3111E"/>
<path d="M33.2579 29.6346C32.8582 29.6346 32.6583 29.4858 32.6583 29.1881C32.6583 28.9445 32.8316 28.7821 33.178 28.7009L34.0974 28.5386C34.657 28.4303 35.0168 28.2815 35.1767 28.092C35.3632 27.9026 35.4565 27.5237 35.4565 26.9553V3.08525C35.4565 2.51691 35.3632 2.13802 35.1767 1.94858C35.0168 1.75913 34.657 1.61028 34.0974 1.50203L33.178 1.33965C32.8316 1.25846 32.6583 1.09607 32.6583 0.852502C32.6583 0.554803 32.8582 0.405954 33.2579 0.405954H40.573C40.9728 0.405954 41.1726 0.568336 41.1726 0.893099C41.1726 1.13667 41.0261 1.28552 40.7329 1.33965L39.6536 1.50203C39.094 1.58322 38.7209 1.73207 38.5344 1.94858C38.3745 2.16509 38.2946 2.55751 38.2946 3.12584V25.8593C38.2946 26.8336 38.561 27.5372 39.094 27.9702C39.6536 28.4032 40.3465 28.6198 41.1726 28.6198C41.7855 28.6198 42.4118 28.498 43.0514 28.2544C43.7176 27.9838 44.3172 27.4966 44.8501 26.793C45.3831 26.0622 45.7829 25.0068 46.0493 23.6265L46.569 20.9066C46.6489 20.5548 46.8488 20.3789 47.1686 20.3789C47.5417 20.3789 47.7016 20.6089 47.6483 21.069L47.1686 28.7009C47.1153 29.3234 46.7822 29.6346 46.1693 29.6346H33.2579Z" fill="#A3111E"/>
<path d="M45.8929 29.6346C45.4931 29.6346 45.2933 29.4993 45.2933 29.2287C45.2933 28.9581 45.4798 28.7821 45.8529 28.7009L46.4525 28.5792C46.9855 28.4709 47.3852 28.2138 47.6517 27.8078C47.9182 27.3748 48.1447 26.7794 48.3312 26.0217L54.527 0.649525C54.5803 0.37889 54.6603 0.202976 54.7669 0.121785C54.9001 0.0405949 55.02 0 55.1266 0C55.2599 0 55.3798 0.0405949 55.4864 0.121785C55.6196 0.202976 55.7129 0.37889 55.7662 0.649525L62.082 26.387C62.2685 27.1448 62.4817 27.6725 62.7215 27.9702C62.9614 28.2679 63.3345 28.4709 63.8408 28.5792L64.4404 28.7009C64.8135 28.7821 65 28.9581 65 29.2287C65 29.4993 64.8001 29.6346 64.4004 29.6346H57.565C57.1919 29.6346 57.0054 29.4858 57.0054 29.1881C57.0054 28.8904 57.2319 28.728 57.6849 28.7009L58.4444 28.6198C58.8974 28.5656 59.1772 28.4168 59.2838 28.1732C59.4171 27.9296 59.4171 27.5101 59.2838 26.9147L57.7649 20.6225C57.605 19.9188 57.1653 19.567 56.4458 19.567H52.2486C51.5557 19.567 51.116 19.9188 50.9295 20.6225L49.5704 26.0622C49.1707 27.6049 49.5704 28.4574 50.7696 28.6198L51.3692 28.7009C51.8222 28.7821 52.0487 28.9445 52.0487 29.1881C52.0487 29.4858 51.8622 29.6346 51.4891 29.6346H45.8929ZM52.1287 18.3491H56.5257C56.9521 18.3491 57.1253 18.1191 57.0454 17.659L54.4871 6.77943H54.2872L51.609 17.659C51.5291 18.1191 51.7023 18.3491 52.1287 18.3491Z" fill="#A3111E"/>
<path d="M20.8736 14.9797C20.8736 17.4706 18.8948 19.4899 16.4539 19.4899C14.013 19.4899 12.0342 17.4706 12.0342 14.9797C12.0342 12.4888 14.013 10.4696 16.4539 10.4696C18.8948 10.4696 20.8736 12.4888 20.8736 14.9797Z" fill="#A3111E"/>
</svg>
