<svg width="112" height="60" viewBox="0 0 112 60" fill="none" xmlns="http://www.w3.org/2000/svg">
<path d="M63.243 44.6164C62.8166 44.6164 62.6034 44.4601 62.6034 44.1475C62.6034 43.8349 62.7882 43.6644 63.1577 43.636L65.0765 43.3376C65.645 43.2524 66.0288 43.1103 66.2278 42.9114C66.4268 42.684 66.5263 42.272 66.5263 41.6752V31.6157C66.5263 30.9905 66.3841 30.3796 66.0999 29.7828L59.8319 16.6543C59.6329 16.1712 59.4055 15.8018 59.1496 15.546C58.8938 15.2903 58.5242 15.1055 58.041 14.9919L57.6572 14.9066C57.2593 14.8214 57.0603 14.6367 57.0603 14.3525C57.0603 14.0683 57.2735 13.9263 57.6999 13.9263H64.9912C65.3892 13.9263 65.5882 14.0825 65.5882 14.3951C65.5882 14.7077 65.3466 14.8782 64.8633 14.9066L64.0532 14.9919C63.5699 15.0203 63.2288 15.1766 63.0298 15.4608C62.8308 15.7449 62.8735 16.1854 63.1577 16.7821L68.4024 27.9499C68.5161 28.1488 68.6582 28.2483 68.8288 28.2483C68.9994 28.2483 69.1415 28.1488 69.2552 27.9499L74.2867 17.6773C74.6562 16.9384 74.7415 16.3417 74.5425 15.887C74.3719 15.4039 73.9598 15.1198 73.306 15.0345L72.3679 14.9066C71.8846 14.8214 71.643 14.6509 71.643 14.3951C71.643 14.0825 71.842 13.9263 72.24 13.9263H78.2948C78.7212 13.9263 78.9344 14.0683 78.9344 14.3525C78.9344 14.6367 78.7354 14.8214 78.3374 14.9066L77.911 14.9919C77.5131 15.0771 77.1577 15.3187 76.845 15.7165C76.5608 16.1143 76.177 16.7821 75.6938 17.7199L70.108 28.9303C69.909 29.3281 69.7669 29.7118 69.6816 30.0812C69.5963 30.4222 69.5537 30.82 69.5537 31.2747V41.6752C69.5537 42.272 69.6532 42.684 69.8521 42.9114C70.0796 43.1103 70.4633 43.2524 71.0034 43.3376L72.9222 43.636C73.2917 43.6644 73.4765 43.8349 73.4765 44.1475C73.4765 44.4601 73.2633 44.6164 72.8369 44.6164H63.243Z" fill="#A3111E"/>
<path d="M76.8614 44.6164C76.435 44.6164 76.2218 44.4601 76.2218 44.1475C76.2218 43.8917 76.4065 43.7212 76.7761 43.636L77.7568 43.4655C78.3537 43.3518 78.7375 43.1955 78.9081 42.9966C79.107 42.7977 79.2065 42.3999 79.2065 41.8031V16.7395C79.2065 16.1428 79.107 15.7449 78.9081 15.546C78.7375 15.3471 78.3537 15.1908 77.7568 15.0771L76.7761 14.9066C76.4065 14.8214 76.2218 14.6509 76.2218 14.3951C76.2218 14.0825 76.435 13.9263 76.8614 13.9263H84.6644C85.0908 13.9263 85.304 14.0968 85.304 14.4378C85.304 14.6935 85.1476 14.8498 84.8349 14.9066L83.6837 15.0771C83.0867 15.1624 82.6888 15.3187 82.4898 15.546C82.3192 15.7733 82.2339 16.1854 82.2339 16.7821V40.6522C82.2339 41.6752 82.5182 42.4141 83.0867 42.8687C83.6837 43.3234 84.4228 43.5507 85.304 43.5507C85.9578 43.5507 86.6258 43.4229 87.308 43.1671C88.0187 42.8829 88.6583 42.3714 89.2268 41.6326C89.7954 40.8654 90.2217 39.7571 90.506 38.3078L91.0603 35.452C91.1456 35.0825 91.3588 34.8978 91.6999 34.8978C92.0979 34.8978 92.2684 35.1394 92.2116 35.6225L91.6999 43.636C91.6431 44.2896 91.2877 44.6164 90.6339 44.6164H76.8614Z" fill="#A3111E"/>
<path d="M91.6183 44.6164C91.1919 44.6164 90.9787 44.4743 90.9787 44.1901C90.9787 43.906 91.1777 43.7212 91.5757 43.636L92.2153 43.5081C92.7838 43.3945 93.2102 43.1245 93.4944 42.6982C93.7787 42.2436 94.0203 41.6184 94.2193 40.8227L100.828 14.182C100.885 13.8978 100.971 13.7131 101.084 13.6279C101.226 13.5426 101.354 13.5 101.468 13.5C101.61 13.5 101.738 13.5426 101.852 13.6279C101.994 13.7131 102.093 13.8978 102.15 14.182L108.887 41.2064C109.086 42.002 109.314 42.5562 109.57 42.8687C109.825 43.1813 110.223 43.3945 110.763 43.5081L111.403 43.636C111.801 43.7212 112 43.906 112 44.1901C112 44.4743 111.787 44.6164 111.36 44.6164H104.069C103.671 44.6164 103.472 44.4601 103.472 44.1475C103.472 43.8349 103.714 43.6644 104.197 43.636L105.007 43.5507C105.49 43.4939 105.789 43.3376 105.903 43.0819C106.045 42.8261 106.045 42.3857 105.903 41.7605L104.282 35.1536C104.112 34.4147 103.643 34.0453 102.875 34.0453H98.398C97.6589 34.0453 97.1899 34.4147 96.9909 35.1536L95.5411 40.8654C95.1147 42.4851 95.5411 43.3802 96.8203 43.5507L97.4599 43.636C97.9432 43.7212 98.1848 43.8917 98.1848 44.1475C98.1848 44.4601 97.9858 44.6164 97.5878 44.6164H91.6183ZM98.2701 32.7666H102.96C103.415 32.7666 103.6 32.525 103.515 32.0419L100.786 20.6184H100.573L97.7158 32.0419C97.6305 32.525 97.8152 32.7666 98.2701 32.7666Z" fill="#A3111E"/>
<path fill-rule="evenodd" clip-rule="evenodd" d="M29.8667 0C46.3616 0 59.7334 13.4315 59.7334 30C59.7334 46.5685 46.3616 60 29.8667 60C13.3718 60 0 46.5685 0 30C0 13.4315 13.3718 0 29.8667 0ZM29.8653 6.45117C14.2574 6.45146 1.60563 16.9948 1.60563 30C1.60582 43.0051 14.2576 53.5485 29.8653 53.5488C45.4732 53.5488 58.1261 43.0053 58.1263 30C58.1263 16.9946 45.4734 6.45117 29.8653 6.45117Z" fill="#A3111E"/>
<path fill-rule="evenodd" clip-rule="evenodd" d="M59.7334 30C59.7334 39.1127 54.0504 46.5 47.0401 46.5C40.0297 46.5 29.8667 39.1939 29.8667 30.0812C29.8667 20.9685 40.0297 13.5 47.0401 13.5C54.0504 13.5 59.7334 20.8873 59.7334 30ZM57.0049 29.9971C57.0049 21.3744 52.5442 14.3835 47.0415 14.3833C41.5388 14.3833 37.0782 21.3743 37.0782 29.9971C37.0784 38.6196 41.5389 45.6094 47.0415 45.6094C52.544 45.6092 57.0047 38.6194 57.0049 29.9971Z" fill="#A3111E"/>
</svg>
