<svg width="40" height="14" viewBox="0 0 40 14" fill="none" xmlns="http://www.w3.org/2000/svg">
<path fill-rule="evenodd" clip-rule="evenodd" d="M24 0C31.5425 0 35.3141 -0.000130236 37.6572 0.819971C40.0004 1.64007 40 2.96014 40 5.6V8.4C40 11.0399 40.0004 12.3599 37.6572 13.18C35.3141 14.0001 31.5425 14 24 14H16C8.45753 14 4.68592 14.0001 2.34277 13.18C-0.000371695 12.3599 0 11.0399 0 8.4V5.6C0 2.96014 -0.000371933 1.64007 2.34277 0.819971C4.68592 -0.000130117 8.45753 0 16 0H24ZM20 4.9C16.6863 4.9 14 5.8402 14 7C14 8.1598 16.6863 9.1 20 9.1C23.3137 9.1 26 8.1598 26 7C26 5.8402 23.3137 4.9 20 4.9Z" fill="#F0F1F3"/>
</svg>
